<svg id="Layer_1" data-name="Layer 1" xmlns="http://www.w3.org/2000/svg" viewBox="0 0 500 500"><defs><style>.cls-1{fill:#3363ac;}.cls-2{fill:#6ebd8f;}</style></defs><path class="cls-1" d="M286.9,214.71c.36,0,.47.15.28.5l-10.6,15.84V242c0,.35-.16.51-.47.51h-.82a.44.44,0,0,1-.51-.51V231l-10.56-15.81c-.2-.35-.08-.5.27-.5h1.06c.47,0,.78.15.9.43l9.27,14,9.27-14a1.07,1.07,0,0,1,.94-.43Z"/><path class="cls-1" d="M285.93,228.75c0-4.23,3.24-6.89,8.37-6.89s8.41,2.62,8.41,6.89v7.43c0,4.22-3.25,6.84-8.41,6.84s-8.37-2.62-8.37-6.84Zm15.09,0c0-3.29-2.66-5.32-6.72-5.32s-6.69,2.07-6.69,5.32v7.47c0,3.24,2.66,5.32,6.69,5.32s6.72-2,6.72-5.32Z"/><path class="cls-1" d="M323.08,222.45a.39.39,0,0,1,.43.43v16.74a1.93,1.93,0,0,1-1.44,2.15A19.41,19.41,0,0,1,315,243c-5.05,0-7.59-2.5-7.59-7.55V222.88c0-.27.16-.43.47-.43h.74c.31,0,.47.16.47.43V235.4c0,4.06,2,6.1,6.06,6.1a16.09,16.09,0,0,0,5.87-1,1.36,1.36,0,0,0,.82-1.33V222.88c0-.27.16-.43.47-.43Z"/><path class="cls-1" d="M338.53,221.86c.28,0,.43.16.43.47V223c0,.31-.15.47-.43.47h-1.25a16.41,16.41,0,0,0-5.91,1,1.38,1.38,0,0,0-.82,1.3V242c0,.31-.15.47-.43.47h-.78a.42.42,0,0,1-.47-.47V225.27c0-1.22.28-1.65,1.49-2.15a18.71,18.71,0,0,1,7-1.26Z"/><path class="cls-1" d="M364.66,223c1.25.58,1.52.9,1.52,2.15v25.46a.41.41,0,0,1-.47.47H365a.42.42,0,0,1-.47-.47v-9.27a16.2,16.2,0,0,1-6.92,1.68q-7.51,0-7.51-7.51v-5.75c0-5.28,2.74-7.9,8.21-7.9A16.74,16.74,0,0,1,364.66,223Zm-13,12.47c0,4,2,6,6,6a15.29,15.29,0,0,0,6.76-1.72V225.66c0-.82-.08-1-1-1.33a14.8,14.8,0,0,0-5.16-.9c-4.42,0-6.65,2.11-6.65,6.37Z"/><path class="cls-1" d="M387.11,222.45a.39.39,0,0,1,.43.43v16.74a1.93,1.93,0,0,1-1.45,2.15A19.37,19.37,0,0,1,379,243c-5,0-7.59-2.5-7.59-7.55V222.88c0-.27.16-.43.47-.43h.75c.31,0,.47.16.47.43V235.4c0,4.06,2,6.1,6.06,6.1a16.12,16.12,0,0,0,5.87-1,1.38,1.38,0,0,0,.82-1.33V222.88c0-.27.15-.43.47-.43Z"/><path class="cls-1" d="M400.17,221.86c2.86,0,4.81.71,5.95,2.08a8.71,8.71,0,0,1,1.64,5.55v10.29c0,1.37-.31,1.76-1.41,2.23a16.21,16.21,0,0,1-6.22,1c-3.2,0-5.39-.47-6.57-1.44a5.42,5.42,0,0,1-1.76-4.5c0-4.34,2.39-5.91,8.49-5.91,1.13,0,3,.16,5.79.43v-2.15c0-3.79-1.41-6.06-6-6.06-2.93,0-5,1.09-6.14,3.32a.44.44,0,0,1-.62.2l-.63-.24a.43.43,0,0,1-.23-.66C393.91,223.23,396.46,221.86,400.17,221.86ZM406.08,233c-2.86-.27-4.85-.43-5.95-.43-4.85,0-6.61,1.21-6.61,4.46a4.2,4.2,0,0,0,1.37,3.44c.9.74,2.58,1.13,5.13,1.13a14.59,14.59,0,0,0,5.16-.78c.78-.31.9-.51.9-1.44Z"/><path class="cls-1" d="M414.72,242c0,.31-.16.47-.43.47h-.78c-.27,0-.43-.16-.43-.47V214c0-.31.16-.47.43-.47h.78c.27,0,.43.16.43.47Z"/><path class="cls-1" d="M421.37,215.45c.74,0,1,.23,1,1v.23c0,.74-.24,1-1,1h-.2c-.78,0-1-.24-1-1v-.23c0-.75.23-1,1-1Zm.27,7c.32,0,.47.16.47.43V242a.41.41,0,0,1-.47.47h-.78c-.27,0-.43-.16-.43-.47V222.88a.39.39,0,0,1,.43-.43Z"/><path class="cls-1" d="M430.87,217.76c.32,0,.47.15.47.43v4.26h6.22c.31,0,.47.16.47.43v.67c0,.27-.16.43-.47.43h-6.22v11.34c0,2.46.43,4.1,1.29,4.89s2.47,1.21,4.85,1.21a.41.41,0,0,1,.47.47v.66a.41.41,0,0,1-.47.47c-2.93,0-5-.51-6.1-1.6s-1.72-3.09-1.72-6.06V224h-4.22a.39.39,0,0,1-.43-.43v-.67a.39.39,0,0,1,.43-.43h4.22v-4.26c0-.28.16-.43.47-.43Z"/><path class="cls-1" d="M456.57,222.45a.39.39,0,0,1,.43.43v21c0,5.63-2.7,8.45-8.13,8.45-3.6,0-6.15-1.49-7.63-4.42-.24-.35-.16-.59.19-.74l.51-.28a.54.54,0,0,1,.75.2,6.4,6.4,0,0,0,6.14,3.72c4.34,0,6.49-2.27,6.49-6.85v-2.54a19.65,19.65,0,0,1-6.85,1.29c-5,0-7.58-2.5-7.58-7.55V222.88c0-.27.15-.43.47-.43h.74c.31,0,.47.16.47.43v12.24c0,4.07,2,6.1,6.06,6.1a17.73,17.73,0,0,0,6.69-1.33v-17c0-.27.15-.43.47-.43Z"/><path class="cls-1" d="M274.08,257.25c5.35,0,8.05,2.62,8.05,7.82v5.75c0,5.05-2.58,7.59-7.7,7.59a15.63,15.63,0,0,1-6.77-1.68V286c0,.31-.15.47-.43.47h-.78A.42.42,0,0,1,266,286V260.54c0-1.26.31-1.65,1.56-2.15A17.6,17.6,0,0,1,274.08,257.25Zm6.37,7.86c0-4.18-2.19-6.29-6.57-6.29a15.16,15.16,0,0,0-5.24.89c-.9.36-1,.51-1,1.33v14.12a15.11,15.11,0,0,0,6.69,1.72q6.11,0,6.1-6.1Z"/><path class="cls-1" d="M294.14,257.25c2.86,0,4.81.71,5.95,2.07a8.74,8.74,0,0,1,1.64,5.56v10.28c0,1.37-.32,1.76-1.41,2.23a16,16,0,0,1-6.22,1c-3.21,0-5.4-.47-6.57-1.45a5.4,5.4,0,0,1-1.76-4.49c0-4.35,2.39-5.91,8.49-5.91,1.13,0,3.05.16,5.79.43v-2.15c0-3.8-1.41-6.06-6-6.06-2.93,0-5,1.09-6.14,3.32a.45.45,0,0,1-.62.2l-.63-.24a.43.43,0,0,1-.23-.66C287.88,258.62,290.42,257.25,294.14,257.25Zm5.91,11.15c-2.86-.28-4.85-.43-5.95-.43-4.85,0-6.61,1.21-6.61,4.46a4.21,4.21,0,0,0,1.37,3.44c.9.74,2.58,1.13,5.12,1.13a14.62,14.62,0,0,0,5.17-.78c.78-.31.9-.51.9-1.45Z"/><path class="cls-1" d="M316.43,257.25c.28,0,.43.16.43.47v.63c0,.31-.15.47-.43.47h-1.25a16.31,16.31,0,0,0-5.9,1,1.37,1.37,0,0,0-.83,1.29v16.27c0,.32-.15.47-.43.47h-.78a.41.41,0,0,1-.47-.47V260.65c0-1.21.28-1.64,1.49-2.15a18.92,18.92,0,0,1,7-1.25Z"/><path class="cls-1" d="M323.32,253.14c.31,0,.47.16.47.43v4.27H330c.31,0,.46.15.46.43v.66c0,.28-.15.43-.46.43h-6.22v11.35c0,2.46.43,4.1,1.29,4.88s2.46,1.22,4.85,1.22a.41.41,0,0,1,.47.47v.66a.42.42,0,0,1-.47.47c-2.94,0-5-.51-6.1-1.6s-1.73-3.09-1.73-6.07V259.36h-4.22a.39.39,0,0,1-.43-.43v-.66a.39.39,0,0,1,.43-.43h4.22v-4.27c0-.27.16-.43.47-.43Z"/><path class="cls-1" d="M342,257.25c5,0,7.59,2.5,7.59,7.55v12.59a.41.41,0,0,1-.47.47h-.78c-.27,0-.43-.15-.43-.47V264.88c0-4-2-6.06-6.1-6.06a16.94,16.94,0,0,0-5.87,1,1.36,1.36,0,0,0-.82,1.29v16.27c0,.32-.16.47-.43.47h-.78a.41.41,0,0,1-.47-.47v-16.7c0-1.21.27-1.64,1.48-2.15A19.16,19.16,0,0,1,342,257.25Z"/><path class="cls-1" d="M354.14,265.43c0-5.13,3-8.18,8.45-8.18s8.44,3.13,8.44,8.1v2c0,.59-.31.86-.9.86H355.82v2.66c0,3.8,2.27,6.1,6.53,6.1a7.3,7.3,0,0,0,6.92-3.83.51.51,0,0,1,.71-.2l.54.32c.32.15.36.39.16.7q-2.4,4.46-8.33,4.46c-5.44,0-8.21-2.89-8.21-7.7Zm15.21-.16c0-4.07-2.35-6.53-6.76-6.53s-6.77,2.46-6.77,6.53v1.56h13.53Z"/><path class="cls-1" d="M385.07,257.25c.28,0,.43.16.43.47v.63c0,.31-.15.47-.43.47h-1.25a16.31,16.31,0,0,0-5.9,1,1.36,1.36,0,0,0-.82,1.29v16.27c0,.32-.16.47-.43.47h-.79a.41.41,0,0,1-.47-.47V260.65c0-1.21.28-1.64,1.49-2.15a18.92,18.92,0,0,1,7-1.25Z"/><rect class="cls-1" x="176.75" y="263.49" width="63.36" height="14.38"/><polygon class="cls-2" points="176.75 241.49 208.43 229.61 240.11 241.49 240.11 225.88 208.43 214 176.75 225.88 176.75 241.49"/><path class="cls-1" d="M43,252c0-16.45,12.57-26.77,28-26.77,11.56,0,18.54,6.13,22.11,12.57L82,243.65A12.85,12.85,0,0,0,71,237.06c-8.46,0-14.43,6.44-14.43,15s6,15,14.43,15a12.19,12.19,0,0,0,11.48-7.22H68.91V248.07H97.15c0,19.55-10.55,30.72-27.38,30.72C55.57,278.79,43,268.48,43,252Z"/><path class="cls-1" d="M103.26,277.86V226.11h37.93v11.64h-24.6v8.07h24.06v11.64H116.59v8.76h24.6v11.64Z"/><path class="cls-1" d="M150.47,277.86V226.11h13.34v51.75Z"/></svg>