<?xml version="1.0" encoding="UTF-8"?>
<svg version="1.1" viewBox="0 0 2048 1023" width="1181" height="590" xmlns="http://www.w3.org/2000/svg">
<path transform="translate(103,194)" d="m0 0h82l1 159 15-10 16-8 19-7 25-5 10-1h33l21 3 21 6 18 8 16 9 16 12 10 9 14 14 12 16 8 13 8 16 6 14 5 19 3 20 1 23-2 25-5 24-7 20-8 17-10 16-11 13-17 17-13 10-16 10-15 8-21 8-25 6-16 2h-23l-24-3-21-5-19-7-16-8-15-9-14-11-12-11-11-12-12-17-12-22-7-19-5-19-3-21-1-15v-306zm166 208-18 4-17 8-12 9-15 15-9 14-7 15-4 15-1 6v24l3 15 5 14 8 15 9 11 12 12 15 10 16 7 12 3 8 1h15l19-3 19-7 14-8 11-9 9-9 9-13 6-13 4-13 2-12v-25l-4-18-5-13-9-15-12-14-11-9-13-8-16-6-14-3z" fill="#BD054F"/>
<path transform="translate(1563,321)" d="m0 0h34l22 3 20 5 18 7 21 11 14 10 15 13 10 11 12 17 9 16 8 19 6 21 3 16 1 9v39l-2 17-1 3h-267l9 19 8 11 13 13 18 11 16 6 13 3 8 1h35l20-3 20-6 21-10 12-8 7-5 3 1 11 14 12 14 11 14 10 12-2 4-12 10-13 9-16 9-15 7-24 8-24 5-27 3h-26l-20-2-20-4-20-6-16-7-17-9-14-10-13-11-11-11-11-14-11-18-8-17-6-18-4-18-2-14v-42l4-24 6-21 8-19 8-14 12-17 14-15 11-10 17-12 21-11 22-8 23-5zm6 75-17 3-15 5-13 7-9 7-10 9-10 14-8 16-4 13v3h193l-3-14-6-15-7-12-11-12-8-7-14-8-17-6-19-3z" fill="#BD054F"/>
<path transform="translate(651,321)" d="m0 0h34l22 3 20 5 16 6 16 8 16 10 11 9 13 12 9 11 10 14 12 23 9 27 4 21 1 8v41l-2 16-1 3h-267l9 19 9 12 4 5 14 11 12 7 16 6 13 3 8 1h36l19-3 20-6 21-10 12-8 7-5 4 2 8 10 18 22 13 16 4 5-2 4-13 11-15 10-23 12-25 9-27 6-15 2-13 1h-26l-20-2-21-4-24-8-23-11-15-10-10-8-10-9-7-7-11-14-9-14-8-15-7-19-5-19-3-20-1-11v-16l2-21 5-25 7-20 9-19 9-14 10-13 13-14 11-9 14-10 18-10 20-8 23-6zm6 75-17 3-15 5-13 7-9 7-10 9-10 14-8 16-4 13v3h193l-2-11-6-16-6-11-7-9-10-10-14-9-14-6-18-4-8-1z" fill="#BD054F"/>
<path transform="translate(875,333)" d="m0 0h83l1 1 1 195 2 16 5 16 6 10 9 10 10 7 15 6 18 3h16l14-2 12-4 13-7 10-9 7-10 5-12 3-14 1-205 1-1h84l1 1v199l-2 22-4 19-6 17-11 21-9 12-9 10-9 9-15 11-14 8-20 8-17 5-25 4h-37l-24-4-18-5-21-9-15-9-14-11-14-14-11-15-9-16-7-18-5-22-2-21v-201z" fill="#BD054F"/>
<path transform="translate(1383,324)" d="m0 0h8l1 1v80l-2 1-18 2-16 5-11 6-11 10-7 11-5 12-2 8-1 9-1 201h-85v-210l3-21 6-20 7-16 8-14 8-10 9-10 8-8 15-11 16-9 19-8 19-5 18-3z" fill="#BD054F"/>
<path transform="translate(1937,324)" d="m0 0h8l1 1v80l-2 1-18 2-16 5-11 6-11 10-8 13-5 14-2 13-1 201h-85v-210l3-20 6-21 7-16 9-15 8-10 9-10 12-11 15-10 17-9 16-6 21-5 13-2z" fill="#BD054F"/>
</svg>
