<svg
      id="Layer_1"
      data-name="Layer 1"
      xmlns="http://www.w3.org/2000/svg"
      viewBox="0 0 500 500"
      {...props}
    >
      <defs>
        <style>{".cls-1{fill:#c61554}"}</style>
      </defs>
      <path
        className="cls-1"
        d="M471 225.35v-19.46c-21.52 0-38 14.12-38 36.06v46.88h20.29V242.9c0-11.24 6.72-17.55 17.69-17.55M424.8 257a70 70 0 00.81-9.18c0-24.81-17.41-42.76-42.22-42.76s-43 17.83-43 43 18.64 43 44.55 43c14.4 0 26.74-4.8 35.09-12.89l-11-13.43c-7.26 5.49-13.84 8.09-24.12 8.09-12.05 0-21-6-24.23-15.9zm-18.39-15.49H360c2.46-11.33 11.36-18.5 23.4-18.5 12.49 0 21 6.7 23 18.5m-68.27-16.18v-19.44c-21.52 0-38 14.12-38 36.06v46.88h20.29V242.9c0-11.24 6.72-17.55 17.69-17.55m-48 29.61v-46.88h-20.25V254c0 11.24-6.72 17.55-17.69 17.55s-17.68-6.31-17.68-17.55v-45.92H214.2V255c0 21.93 16.44 36 38 36s38-14.12 38-36m-84 2.06a68.33 68.33 0 00.83-9.18c0-24.81-17.41-42.76-42.22-42.76s-43 17.95-43 43 18.64 43 44.54 43c14.4 0 26.74-4.8 35.09-12.89l-11-13.43c-7.26 5.49-13.84 8.09-24.12 8.09-12.05 0-21-6-24.23-15.9zm-18.39-15.49h-46.5c2.46-11.33 11.35-18.5 23.41-18.5 12.47 0 21 6.7 23 18.5m-82.34 34.6c9.15-10.47 12.08-26.06 8.32-40.19-4.78-15.8-18.83-28.68-35.35-30.41-11.08-1-21.56 1.2-29.62 7.73v-38.68H29v70.58c.09 9.12 1.42 16.25 5.2 23.2 7.95 15.06 24 23.61 41.58 22.66a44.86 44.86 0 0029.62-14.93m-13.49-13.91a24.93 24.93 0 01-25 9.27 24.4 24.4 0 01-17.67-19.58 24.12 24.12 0 0110.96-24.22c7-4.63 18.31-4.52 25.47.52A24.75 24.75 0 0194 238c3.57 7.13 2.76 17.58-2.07 24.22M46.28 325.38a10.7 10.7 0 01-4-.74 9.92 9.92 0 01-3.22-2.06 9.44 9.44 0 01-2.12-3.12 10.49 10.49 0 010-7.79 9.44 9.44 0 012.12-3.12 9.78 9.78 0 013.22-2.07 10.9 10.9 0 014-.73 11 11 0 013.8.64 7.83 7.83 0 013 1.91l-.55.64a7.8 7.8 0 00-2.88-1.8 10.47 10.47 0 00-3.36-.53 9.47 9.47 0 00-3.64.68 8.77 8.77 0 00-2.93 1.9 8.49 8.49 0 00-1.9 2.81 9.53 9.53 0 000 7.07 8.59 8.59 0 001.92 2.84 9.09 9.09 0 002.93 1.9 9.66 9.66 0 003.64.68 10.44 10.44 0 003.37-.54 7.44 7.44 0 002.84-1.79l.56.69a8.14 8.14 0 01-3 1.87 11.14 11.14 0 01-3.8.66zm5.91-2.56v-7.12h.89v7.18zM64.8 325.35a7.5 7.5 0 01-3.77-.93 6.76 6.76 0 01-2.58-2.59 7.51 7.51 0 01-.94-3.77 7.89 7.89 0 01.87-3.77 6.68 6.68 0 012.42-2.58 6.47 6.47 0 013.47-.94 6.59 6.59 0 013.45.91 6.5 6.5 0 012.42 2.54A7.75 7.75 0 0171 318v.25H58.12v-.75h12.39l-.36.44a6.73 6.73 0 00-.76-3.23 5.79 5.79 0 00-2.09-2.24 6 6 0 00-6 0 5.79 5.79 0 00-2.09 2.24 6.79 6.79 0 00-.76 3.26v.17a6.6 6.6 0 00.83 3.34 6 6 0 002.27 2.27 6.62 6.62 0 003.3.82 7 7 0 002.68-.53 5.09 5.09 0 002.09-1.61l.58.61a6.24 6.24 0 01-2.37 1.76 7.48 7.48 0 01-3.03.55zM79 325.35a10 10 0 01-3.32-.54 6 6 0 01-2.36-1.37l.44-.73a7.27 7.27 0 002.18 1.29 8.24 8.24 0 003.08.55 5.67 5.67 0 003.48-.83 2.61 2.61 0 001.07-2.16A2.16 2.16 0 0083 320a3.49 3.49 0 00-1.39-.85 10.74 10.74 0 00-1.9-.49c-.69-.12-1.39-.26-2.09-.41a9.31 9.31 0 01-1.91-.64 3.58 3.58 0 01-1.39-1.12 3.19 3.19 0 01-.52-1.92 3.4 3.4 0 01.56-1.88 4.08 4.08 0 011.74-1.4 7 7 0 013-.54 9.26 9.26 0 012.68.4 6.09 6.09 0 012.15 1.07l-.48.72a5.67 5.67 0 00-2-1 8.58 8.58 0 00-2.37-.33 5.11 5.11 0 00-3.28.86 2.64 2.64 0 00-1 2.1 2.29 2.29 0 00.53 1.6 3.2 3.2 0 001.38.9 13.1 13.1 0 001.9.5l2.08.41a10.32 10.32 0 011.9.61 3.55 3.55 0 011.41 1.07 3 3 0 01.53 1.89 3.35 3.35 0 01-.62 2 4 4 0 01-1.91 1.33 8.55 8.55 0 01-3 .47zM94.35 325.35a7 7 0 01-3.19-.68 4.71 4.71 0 01-2-2 7 7 0 01-.72-3.32v-8.45h.91v8.4a5.29 5.29 0 001.33 3.9 5.07 5.07 0 003.75 1.34 5.83 5.83 0 003-.74 4.84 4.84 0 001.92-2.06 6.74 6.74 0 00.67-3.08v-7.76h.91v14.38H100v-4l.11.25a5.54 5.54 0 01-2.11 2.78 6.24 6.24 0 01-3.65 1.04zM113.81 310.77a6.4 6.4 0 013.06.69 4.83 4.83 0 012 2 6.92 6.92 0 01.72 3.31v8.45h-.91v-8.39a5.35 5.35 0 00-1.31-3.91 4.88 4.88 0 00-3.66-1.33 6.31 6.31 0 00-3.1.72 4.88 4.88 0 00-2 2 6.65 6.65 0 00-.69 3.1v7.76H107v-14.29h.88v4.05l-.11-.26a5.81 5.81 0 012.21-2.85 6.58 6.58 0 013.83-1.05zM131 325.35a7 7 0 01-3.59-.93 6.79 6.79 0 01-2.52-2.58 8.17 8.17 0 010-7.57 6.88 6.88 0 016.11-3.5 6.77 6.77 0 013.5.91 6.61 6.61 0 012.45 2.55 8.58 8.58 0 010 7.65 6.46 6.46 0 01-2.45 2.57 6.86 6.86 0 01-3.5.9zm0-.83a6.15 6.15 0 003.16-.82 6 6 0 002.19-2.29 7.46 7.46 0 000-6.72 5.88 5.88 0 00-2.19-2.26 6.58 6.58 0 00-6.29 0 5.93 5.93 0 00-2.21 2.26 7.37 7.37 0 000 6.72 6 6 0 002.21 2.29 6.09 6.09 0 003.13.82zm6.18.74v-5l.25-2.19-.28-2.19V304.7h.92v20.56zM151 310.77a6.41 6.41 0 013.07.69 4.94 4.94 0 012 2 6.92 6.92 0 01.72 3.31v8.45h-.92v-8.39a5.35 5.35 0 00-1.3-3.91 4.88 4.88 0 00-3.66-1.33 6.29 6.29 0 00-3.1.72 4.82 4.82 0 00-2 2 6.65 6.65 0 00-.69 3.1v7.76h-.92V304.7h.92v10.23l-.14-.26a5.79 5.79 0 012.2-2.85 6.62 6.62 0 013.82-1.05zM168.47 325.35a7.5 7.5 0 01-3.77-.93 6.76 6.76 0 01-2.58-2.59 7.51 7.51 0 01-.94-3.77 7.89 7.89 0 01.87-3.77 6.66 6.66 0 012.41-2.58 6.66 6.66 0 019.35 2.51 7.75 7.75 0 01.87 3.73v.25h-12.89v-.75h12.39l-.36.44a6.73 6.73 0 00-.76-3.23 5.74 5.74 0 00-2.1-2.24 6 6 0 00-6 0 5.72 5.72 0 00-2.09 2.24 6.79 6.79 0 00-.76 3.26v.17a6.6 6.6 0 00.83 3.34 6 6 0 002.27 2.27 6.62 6.62 0 003.3.82 6.88 6.88 0 002.67-.53 5.12 5.12 0 002.1-1.61l.58.61a6.24 6.24 0 01-2.37 1.76 7.48 7.48 0 01-3.02.6zM179.64 307.11a1 1 0 01-.92-.89.92.92 0 01.92-.91.89.89 0 01.91.88.92.92 0 01-.26.64.85.85 0 01-.65.28zm-.44 18.15v-14.38h.91v14.38zM183.8 311.68v-.8h8.37v.8zm6.37 13.67a3.52 3.52 0 01-2.71-1 3.76 3.76 0 01-1-2.69v-13.94h.92v13.8a3.2 3.2 0 00.72 2.25 2.76 2.76 0 002.11.77 3.22 3.22 0 002.32-.86l.48.67a3.52 3.52 0 01-1.31.75 5.32 5.32 0 01-1.53.25zM209.94 325.35a7 7 0 01-3.19-.68 4.71 4.71 0 01-2.05-2 7 7 0 01-.72-3.32v-8.45h.91v8.4a5.25 5.25 0 001.33 3.9 5.06 5.06 0 003.74 1.34 5.8 5.8 0 003-.74 4.86 4.86 0 001.93-2.06 6.87 6.87 0 00.66-3.08v-7.76h.92v14.38h-.89v-4l.11.25a5.47 5.47 0 01-2.1 2.82 6.24 6.24 0 01-3.65 1zM229.39 310.77a6.41 6.41 0 013.07.69 4.83 4.83 0 012 2 6.92 6.92 0 01.72 3.31v8.45h-.92v-8.39A5.35 5.35 0 00233 313a4.88 4.88 0 00-3.66-1.33 6.29 6.29 0 00-3.1.72 4.82 4.82 0 00-2 2 6.65 6.65 0 00-.69 3.1v7.76h-.92v-14.37h.89v4.05l-.11-.26a5.79 5.79 0 012.2-2.85 6.62 6.62 0 013.78-1.05zM246.58 325.35a7 7 0 01-3.59-.93 6.79 6.79 0 01-2.52-2.58 8.17 8.17 0 010-7.57 6.88 6.88 0 016.11-3.5 6.73 6.73 0 013.49.91 6.63 6.63 0 012.46 2.55 8.58 8.58 0 010 7.65 6.48 6.48 0 01-2.46 2.57 6.82 6.82 0 01-3.49.9zm0-.83a6.17 6.17 0 003.16-.82 6 6 0 002.19-2.29 7.46 7.46 0 000-6.72 5.88 5.88 0 00-2.19-2.26 6.6 6.6 0 00-6.3 0 6 6 0 00-2.2 2.26 7.29 7.29 0 000 6.72 6.06 6.06 0 002.2 2.29 6.13 6.13 0 003.17.82zm6.18.74v-5L253 318l-.28-2.19V304.7h.92v20.56zM271.58 325.26l-6.58-19.4h1l6.37 18.77h-.5l6.57-18.77h.92l6.54 18.77h-.47l6.4-18.77h.94l-6.62 19.4h-.95l-6.43-18.4h.23l-6.41 18.4zM300.91 325.35a7 7 0 01-3.62-.93 6.75 6.75 0 01-2.52-2.59 7.61 7.61 0 01-.93-3.77 7.47 7.47 0 01.93-3.77 6.85 6.85 0 016.14-3.52 7 7 0 013.63.94 6.79 6.79 0 012.52 2.58 7.57 7.57 0 01.92 3.77 7.71 7.71 0 01-.92 3.77 6.61 6.61 0 01-2.52 2.59 7.11 7.11 0 01-3.63.93zm0-.83a6.21 6.21 0 003.17-.82 5.75 5.75 0 002.19-2.29 7.54 7.54 0 000-6.72 5.67 5.67 0 00-2.19-2.26 6.3 6.3 0 00-3.17-.8 6.15 6.15 0 00-3.13.8 5.93 5.93 0 00-2.21 2.26 7.37 7.37 0 000 6.72 5.94 5.94 0 005.34 3.11zM319.29 310.77a6.4 6.4 0 013.06.69 4.83 4.83 0 012 2 6.92 6.92 0 01.72 3.31v8.45h-.92v-8.39a5.35 5.35 0 00-1.3-3.91 4.88 4.88 0 00-3.66-1.33 6.31 6.31 0 00-3.1.72 4.88 4.88 0 00-2 2 6.65 6.65 0 00-.69 3.1v7.76h-.91V304.7h.91v10.23l-.14-.26a5.81 5.81 0 012.21-2.85 6.58 6.58 0 013.82-1.05zM331.07 325.26V304.7h.93v20.56zM338.14 325.26V304.7h.91v11.14l-.28 2.19.25 2.19v5zm7.09.09a6.82 6.82 0 01-3.49-.9 6.39 6.39 0 01-2.45-2.57 8.49 8.49 0 010-7.65 6.54 6.54 0 012.45-2.55 6.73 6.73 0 013.49-.91 6.88 6.88 0 016.11 3.5 8.17 8.17 0 010 7.57 6.72 6.72 0 01-2.52 2.58 7 7 0 01-3.59.93zm0-.83a6.16 6.16 0 003.15-.82 5.84 5.84 0 002.2-2.29 7.37 7.37 0 000-6.72 5.76 5.76 0 00-2.2-2.26 6.62 6.62 0 00-6.31 0 5.88 5.88 0 00-2.19 2.26 7.46 7.46 0 000 6.72 6 6 0 002.12 2.29 6.17 6.17 0 003.2.82zM362.45 325.35a7.47 7.47 0 01-3.77-.93 6.76 6.76 0 01-2.58-2.59 7.51 7.51 0 01-.94-3.77 7.89 7.89 0 01.87-3.77 6.78 6.78 0 019.34-2.61 6.41 6.41 0 012.41 2.54 7.76 7.76 0 01.88 3.73v.25h-12.89v-.75h12.39l-.36.44a6.73 6.73 0 00-.77-3.23 5.65 5.65 0 00-5.11-3.06 5.58 5.58 0 00-3 .82 5.64 5.64 0 00-2.09 2.24 6.8 6.8 0 00-.77 3.26v.17a6.7 6.7 0 00.83 3.34 6.13 6.13 0 002.28 2.27 6.62 6.62 0 003.3.82 6.88 6.88 0 002.67-.53 5 5 0 002.09-1.61l.59.61a6.24 6.24 0 01-2.37 1.76 7.52 7.52 0 01-3 .6zM370.7 311.68v-.8h8.38v.8zm2.72 13.58v-16.93a3.75 3.75 0 011-2.7 3.55 3.55 0 012.73-1 5.13 5.13 0 011.56.24 3.27 3.27 0 011.29.73l-.47.7a2.49 2.49 0 00-1.05-.65 3.9 3.9 0 00-1.28-.21 2.75 2.75 0 00-2.1.77 3.2 3.2 0 00-.72 2.25v16.82zm9-18.15a1 1 0 01-.92-.89.92.92 0 01.92-.91.85.85 0 01.65.26.84.84 0 01.27.62.89.89 0 01-.27.64.83.83 0 01-.64.28zm-.42 18.15v-14.38h.91v14.38zM395.85 310.77a6.4 6.4 0 013.06.69 4.83 4.83 0 012 2 6.92 6.92 0 01.72 3.31v8.45h-.92v-8.39a5.35 5.35 0 00-1.3-3.91 4.88 4.88 0 00-3.66-1.33 6.31 6.31 0 00-3.1.72 4.82 4.82 0 00-2 2 6.65 6.65 0 00-.69 3.1v7.76h-.91v-14.29h.88v4.05l-.11-.26a5.85 5.85 0 012.2-2.85 6.63 6.63 0 013.83-1.05zM413 325.35a7 7 0 01-3.59-.93 6.79 6.79 0 01-2.52-2.58 8.17 8.17 0 010-7.57 6.88 6.88 0 016.11-3.5 6.77 6.77 0 013.5.91 6.61 6.61 0 012.45 2.55 8.58 8.58 0 010 7.65 6.46 6.46 0 01-2.45 2.57 6.86 6.86 0 01-3.5.9zm0-.83a6.15 6.15 0 003.16-.82 5.89 5.89 0 002.19-2.29 7.46 7.46 0 000-6.72 5.81 5.81 0 00-2.19-2.26 6.58 6.58 0 00-6.29 0 5.83 5.83 0 00-2.2 2.26 7.29 7.29 0 000 6.72 5.91 5.91 0 002.2 2.29 6.09 6.09 0 003.19.82zm6.18.74v-5l.25-2.19-.28-2.19V304.7h.92v20.56zM431.94 325.35a7.47 7.47 0 01-3.77-.93 6.76 6.76 0 01-2.58-2.59 7.51 7.51 0 01-.94-3.77 7.89 7.89 0 01.87-3.77 6.66 6.66 0 012.41-2.58 6.53 6.53 0 013.48-.94 6.61 6.61 0 013.45.91 6.41 6.41 0 012.41 2.54 7.64 7.64 0 01.88 3.73v.25h-12.89v-.75h12.39l-.36.44a6.84 6.84 0 00-.76-3.23 5.74 5.74 0 00-2.1-2.24 5.77 5.77 0 00-8.13 2.24 6.8 6.8 0 00-.77 3.26v.17a6.6 6.6 0 00.84 3.34 6 6 0 002.27 2.27 6.62 6.62 0 003.3.82 6.88 6.88 0 002.67-.53 5 5 0 002.09-1.61l.59.61a6.24 6.24 0 01-2.37 1.76 7.52 7.52 0 01-2.98.6zM449.45 310.77a6.41 6.41 0 013.07.69 4.83 4.83 0 012 2 6.92 6.92 0 01.72 3.31v8.45h-.92v-8.39A5.35 5.35 0 00453 313a4.88 4.88 0 00-3.66-1.33 6.29 6.29 0 00-3.1.72 4.82 4.82 0 00-2 2 6.65 6.65 0 00-.69 3.1v7.76h-.92v-14.37h.89v4.05l-.11-.26a5.79 5.79 0 012.2-2.85 6.62 6.62 0 013.84-1.05z"
      />
    </svg>