<svg id="Layer_1" data-name="Layer 1" xmlns="http://www.w3.org/2000/svg" viewBox="0 0 500 500"><defs><style>.cls-1{fill:#231815;}.cls-2{fill:#fae924;}</style></defs><path class="cls-1" d="M386.59,326.54c-6.08,0-8.81-3.16-8.81-10.36,0-5.76,2.79-8.92,7.81-8.92,4.84,0,7.44,3,7.44,8.43a12.23,12.23,0,0,1-.06,1.42v.07H381c.18,4.65,1.79,6.44,5.89,6.44a11,11,0,0,0,5-1.17l.12-.07.37,2.73-.06.06a12.52,12.52,0,0,1-5.76,1.37M380.94,315h9.18c-.06-3.29-1.61-5-4.53-5s-4.4,1.48-4.65,5"/><path class="cls-1" d="M370.59,326.54c-5.39,0-8.06-3.23-8.06-9.86,0-6.38,2.67-9.48,8.12-9.48a12.32,12.32,0,0,1,4.59.93h.06v.06l-.18,2.79-.13-.06a9,9,0,0,0-3.78-.81c-3.91,0-5.46,1.86-5.46,6.57s1.68,7,5.4,7a7.42,7.42,0,0,0,3.9-1.06l.13-.06v.13l.25,2.48h-.07a7.69,7.69,0,0,1-4.77,1.36"/><path class="cls-1" d="M358.75,326.17h-3.16V313.7c0-2.6-1.31-3.84-4.16-3.84a5.28,5.28,0,0,0-4.28,2.05v14.26H344V307.32h.06l2.24-.19v.07l.49,1.86a7.66,7.66,0,0,1,5.46-2.24c4.15,0,6.45,2.42,6.45,6.76v12.59Z"/><path class="cls-1" d="M333.51,326.54c-6.07,0-8.8-3.16-8.8-10.36,0-5.76,2.79-8.92,7.81-8.92,4.84,0,7.5,3,7.5,8.43a12.23,12.23,0,0,1-.06,1.42v.07H328c.18,4.65,1.79,6.44,5.89,6.44a11,11,0,0,0,5-1.17l.12-.07v.13l.37,2.6-.06.07a12.72,12.72,0,0,1-5.83,1.36M327.93,315h9.18c-.06-3.29-1.61-5-4.53-5s-4.46,1.48-4.65,5"/><path class="cls-1" d="M315.41,326.17h-3.16V307.69l2.54-.18.25,3.84c1.24-2.6,3.22-4.09,5.7-4.09a7.61,7.61,0,0,1,1.86.25h.06v.06l-.18,3.16-.13-.06a4.89,4.89,0,0,0-1.79-.25c-3,0-5.15,2.6-5.15,6.26v9.49Z"/><path class="cls-1" d="M301.71,326.54c-6.08,0-8.81-3.16-8.81-10.36,0-5.76,2.79-8.92,7.82-8.92,4.83,0,7.44,3,7.44,8.43a10.94,10.94,0,0,1-.07,1.42v.07h-11.9c.19,4.65,1.8,6.44,5.89,6.44a10.93,10.93,0,0,0,5-1.17l.13-.07v.13l.37,2.6-.06.07a12.75,12.75,0,0,1-5.83,1.36M296.13,315h9.17c-.06-3.29-1.61-5-4.52-5s-4.47,1.48-4.65,5"/><path class="cls-1" d="M283.29,326h2.79V309.55h4.78v-2.11h-4.78v-.93c0-2.23,1.24-3.41,3.79-3.41a7.17,7.17,0,0,1,2,.25l.19-1.86a11.46,11.46,0,0,0-2.67-.37c-3.91,0-6,1.86-6,5.33v.93h-2.79v2.11h2.79V326Z"/><path class="cls-1" d="M273.93,326.17h-3.16V309.74H268v-2.48h2.79v-.75c0-2,.81-5.52,6.2-5.52a9.41,9.41,0,0,1,2.79.38h.06l-.18,2.23h-.13a6.81,6.81,0,0,0-2-.25c-2.42,0-3.6,1.06-3.6,3.23v.74h4.78v2.48h-4.78Z"/><path class="cls-1" d="M263.64,326.17h-3.16V307.44l3.16-.18ZM262,304.34c-1.43,0-2-.49-2-1.67,0-.81.38-1.68,2-1.68s2,.93,2,1.68c.06,1.11-.62,1.67-2,1.67"/><path class="cls-1" d="M246.09,326.54c-5,0-7.25-3-7.25-9.86,0-6.57,2.42-9.73,7.32-9.73a7.3,7.3,0,0,1,5.2,2l-.06-2.35v-5.4h.06l3.1-.18v25.11H252l-.37-1.93a6.67,6.67,0,0,1-5.52,2.3m.87-16.68c-3.53,0-4.83,1.86-4.83,6.95,0,5.27,1.24,7.06,4.83,7.06a4.73,4.73,0,0,0,4.4-2.23v-9.73a5.19,5.19,0,0,0-4.4-2.05"/><path class="cls-1" d="M227.31,326.17h-2.42l-.25-2.55a6.74,6.74,0,0,1-5.58,2.55c-3.78,0-5.83-2.05-5.83-5.83s2.42-5.77,6.82-5.77a14.28,14.28,0,0,1,4.22.69v-1.74c0-2.79-1.18-3.91-4.28-3.91a12.18,12.18,0,0,0-5.21,1.12l-.12.06-.31-2.66h.06a14.74,14.74,0,0,1,6.08-1.24c4.9,0,6.88,2,6.88,7.06v12.22Zm-6.76-9.24c-2.91,0-4.34,1.05-4.34,3.22s1.24,3.35,3.66,3.35,4.34-1.55,4.34-2.79v-3.22a11.54,11.54,0,0,0-3.66-.56"/><path class="cls-1" d="M195.25,326.54a9.76,9.76,0,0,1-5.76-1.61l-.06-.07.43-2.72.12.12a9.63,9.63,0,0,0,5.27,1.55c2.42,0,3.79-1.05,3.79-2.91s-1.86-2.42-4-3.1c-2.61-.87-5.58-1.8-5.58-5.27,0-3.29,2.48-5.27,6.63-5.27a12.65,12.65,0,0,1,5.08,1.05h.07L201,311l-.13-.07a13.15,13.15,0,0,0-4.83-1c-2.17,0-3.54.93-3.54,2.36,0,1.61,1.74,2.17,3.79,2.85,2.66.81,5.7,1.8,5.7,5.46-.06,3.84-2.42,6-6.7,6"/><path class="cls-1" d="M179.82,326.54c-6.08,0-8.81-3.16-8.81-10.36,0-5.76,2.79-8.92,7.81-8.92,4.84,0,7.44,3,7.44,8.43a12.23,12.23,0,0,1-.06,1.42v.07h-12c.18,4.65,1.79,6.44,5.89,6.44a11,11,0,0,0,5-1.17l.12-.07.37,2.73-.06.06a12.34,12.34,0,0,1-5.76,1.37M174.24,315h9.17c-.06-3.29-1.61-5-4.52-5s-4.47,1.48-4.65,5"/><polygon class="cls-1" points="169.59 326.17 165.87 326.17 165.8 326.11 160.1 317.36 157.37 317.36 157.37 326.17 154.21 326.17 154.21 301.18 154.33 301.18 157.37 301 157.37 314.63 160.1 314.63 165.62 307.26 169.34 307.26 169.21 307.44 162.83 315.88 169.59 326.17"/><path class="cls-1" d="M149.19,326.17h-2.42l-.25-2.55a6.74,6.74,0,0,1-5.58,2.55c-3.78,0-5.83-2.05-5.83-5.83s2.42-5.77,6.82-5.77a14.28,14.28,0,0,1,4.22.69v-1.74c0-2.79-1.18-3.91-4.28-3.91a12.18,12.18,0,0,0-5.21,1.12l-.12.06-.31-2.66h.06a14.74,14.74,0,0,1,6.08-1.24c4.9,0,6.88,2,6.88,7.06v12.22Zm-6.76-9.24c-2.91,0-4.34,1.05-4.34,3.22s1.24,3.35,3.66,3.35,4.34-1.55,4.34-2.79v-3.22a11.2,11.2,0,0,0-3.66-.56"/><path class="cls-1" d="M131.15,326.17H128V313.89c0-2.42-1.3-3.66-3.78-3.66-1.67,0-3.59.87-3.59,3.35v12.59h-3.17V313.58c0-2.91-2.23-3.41-3.59-3.41a4.91,4.91,0,0,0-3.85,1.92v14h-3.16V307.57h.06l2.24-.19.55,2a6.33,6.33,0,0,1,4.84-2.17c2.54,0,4.22.93,5.08,2.85a5.85,5.85,0,0,1,5.27-2.85c3.91,0,6.2,2.41,6.2,6.57v12.4Z"/><rect class="cls-2" x="64" y="240.92" width="372" height="30.07"/><path class="cls-1" d="M209.2,191.81c0,4.78-1.92,6-6.57,6H196V186.29h6.69c4.9,0,6.51,1.25,6.51,5.52m16.56-.62c0-11.28-7.88-16.74-22.76-16.74H180.25v50.66h15.81V208.43h6.51l8.56,16.68h18.66l-13-19.72c5.64-2,8.93-7.62,8.93-14.2"/><polygon class="cls-1" points="353.11 212.65 353.11 204.9 373.75 204.9 373.75 193.86 353.11 193.86 353.11 187.1 378.09 187.1 377.78 174.45 337.3 174.45 337.3 225.11 378.77 225.11 379.08 212.65 353.11 212.65"/><polygon class="cls-1" points="327.81 225.11 327.81 174.45 312.06 174.45 312.06 193.18 295.2 193.18 295.2 174.45 279.39 174.45 279.39 225.11 295.2 225.11 295.2 206.07 312.06 206.07 312.06 225.11 327.81 225.11"/><path class="cls-1" d="M272.07,175.57a45.62,45.62,0,0,0-13.64-2.11c-19.47,0-28.08,10-28.08,26.1,0,17.3,9.17,26.48,26.78,26.48a39.93,39.93,0,0,0,15.13-3.1l-1.68-11.6a30.63,30.63,0,0,1-11.34,2.11c-9.67,0-12.15-3.28-12.15-13.76,0-9.92,2.29-13.27,12-13.27A42.63,42.63,0,0,1,270.58,188Z"/><path class="cls-1" d="M415.35,191.81c0,4.78-1.86,6-6.57,6h-6.57V186.29h6.7c4.83,0,6.44,1.25,6.44,5.52m16.56-.62c0-11.28-7.88-16.74-22.76-16.74H386.4v50.66h15.81V208.43h6.57l8.56,16.68H436l-13-19.72c5.64-2,8.87-7.62,8.87-14.2"/><path class="cls-1" d="M151.17,204.83H139.58l4.28-13.27,1.55-5.26h.18l1.49,5.26Zm24.06,20.28-20.52-50.66H136.42l-20.15,50.66h16.8l2.73-8.5h19l2.67,8.5Z"/><rect class="cls-1" x="117.63" y="174.45" width="11.78" height="10.73"/><rect class="cls-1" x="161.71" y="174.45" width="11.78" height="10.73"/><polygon class="cls-1" points="97.11 174.45 84.83 193.43 79.81 193.43 79.81 174.45 64 174.45 64 225.11 79.81 225.11 79.81 205.33 84.65 205.33 96.92 225.11 116.2 225.11 98.72 198.45 115.27 174.45 97.11 174.45"/></svg>