<svg id="Layer_1" data-name="Layer 1" xmlns="http://www.w3.org/2000/svg" viewBox="0 0 500 500"><defs><style>.cls-1{fill:#1d1d1b;}</style></defs><path class="cls-1" d="M408,202.41c0-4.08,3-7.11,6.5-7.11s6.5,3,6.5,7.11-3,7.15-6.5,7.15-6.5-3-6.5-7.15m6.5,6c2.91,0,5.19-2.52,5.19-6s-2.28-5.92-5.19-5.92-5.21,2.55-5.21,5.92S411.57,208.37,414.5,208.37Zm-1.35-1.82H412v-8.22h2.82c1.75,0,2.61.71,2.61,2.33a2,2,0,0,1-1.91,2.26l2.09,3.63H416.4l-2-3.57h-1.29Zm1.34-4.63c.95,0,1.8-.07,1.8-1.33,0-1-.83-1.21-1.61-1.21h-1.53v2.54Z"/><path class="cls-1" d="M205.36,275a2.47,2.47,0,0,1-2.46-2.46V199.49a2.46,2.46,0,0,1,2.46-2.45h10.31v78H205.36"/><path class="cls-1" d="M249.31,275a3.17,3.17,0,0,1-2.95-2.41l-10-49.69a18.07,18.07,0,0,0-.58-2.41,21.43,21.43,0,0,0-.07,2.46v52h-9.61a2.46,2.46,0,0,1-2.46-2.46V199.49a2.46,2.46,0,0,1,2.46-2.45h11.25a3.09,3.09,0,0,1,2.92,2.4l9.89,50.12a22.1,22.1,0,0,0,.56,2.41,15.3,15.3,0,0,0,.09-2.46v-50a2.46,2.46,0,0,1,2.46-2.45h9.61v78H249.31"/><path class="cls-1" d="M334,211.23H320.48v16h12.85v14.2H320.48v19.43H334V275H310.19a2.47,2.47,0,0,1-2.46-2.46V199.49a2.46,2.46,0,0,1,2.46-2.45H334v14.19"/><path class="cls-1" d="M79,236.11c0-21.86,8.68-39.58,19.4-39.58s19.42,17.72,19.42,39.58S109.14,275.7,98.4,275.7,79,258,79,236.11m19.4,31c10.1,0,18.28-13.9,18.28-31s-8.18-31-18.28-31-18.26,13.9-18.26,31S88.32,267.15,98.4,267.15Z"/><path class="cls-1" d="M98.4,223.91a1.3,1.3,0,0,0,1.31-1.29V212a1.3,1.3,0,1,0-2.6,0v10.66a1.29,1.29,0,0,0,1.29,1.29"/><path class="cls-1" d="M98.46,249.36c1.61,0,2.92-4.91,2.92-11s-1.31-11-2.92-11-2.9,4.93-2.9,11,1.31,11,2.9,11"/><path class="cls-1" d="M92,249.65c1.12-.27,1-3.32-.24-6.82s-3.17-6.1-4.28-5.82-1,3.33.23,6.82,3.18,6.09,4.29,5.82"/><path class="cls-1" d="M104.72,249.65c-1.11-.27-1-3.32.24-6.82s3.17-6.1,4.3-5.82,1,3.33-.23,6.82-3.19,6.09-4.31,5.82"/><path class="cls-1" d="M103.91,258.85a1.25,1.25,0,0,0,1.26-1.25v-3.32a1.25,1.25,0,0,0-1.26-1.26h-11a1.27,1.27,0,0,0-1.26,1.26v3.32a1.26,1.26,0,0,0,1.26,1.25h11"/><path class="cls-1" d="M301.81,244.43v13.76c0,12.89-4.47,18.36-16.08,18.36s-16.08-5.47-16.08-18.36V213.85c0-12.88,4.45-18.35,16.08-18.35s16.08,5.47,16.08,18.35v11h-10.3a2.46,2.46,0,0,1-2.45-2.46V213.2a3.26,3.26,0,0,0-3.33-3.5c-2.28,0-3.33,1.2-3.33,5.46v41.73c0,4.25,1.05,5.46,3.33,5.46a3.26,3.26,0,0,0,3.33-3.5v-12a2.46,2.46,0,0,1,2.45-2.46h10.3"/><path class="cls-1" d="M340.07,250.44a2.46,2.46,0,0,0-2.46,2.46v4.86c0,14.42,4.72,18.79,16.33,18.79,12.49,0,16.52-5,16.52-21.3,0-25.45-20.1-25.45-20.1-39.1,0-4.59,1.05-6.45,3.67-6.45s3.68,2,3.68,6.45v2.18a2.33,2.33,0,0,0,2.44,2.18h10V214.4c0-13.87-5.24-18.9-16.08-18.9-12.23,0-16.42,5.9-16.42,19.88,0,26,20,24.36,20.1,40.52,0,4.59-1,6.45-3.68,6.45s-3.67-2-3.67-6.45v-5.46H340.07"/><path class="cls-1" d="M375.62,250.44a2.47,2.47,0,0,0-2.46,2.46v4.86c0,14.42,4.72,18.79,16.35,18.79,12.5,0,16.5-5,16.5-21.3,0-25.45-20.08-25.45-20.08-39.1,0-4.59,1.05-6.45,3.67-6.45s3.66,2,3.66,6.45v2.18a2.34,2.34,0,0,0,2.46,2.18h10V214.4c0-13.87-5.25-18.9-16.08-18.9-12.23,0-16.44,5.9-16.44,19.88,0,26,20,24.36,20.1,40.52,0,4.59-1.05,6.45-3.66,6.45s-3.67-2-3.67-6.45v-5.46H375.62"/><path class="cls-1" d="M139.32,275H129a2.47,2.47,0,0,1-2.46-2.46V199.49A2.46,2.46,0,0,1,129,197h13.27c12.5,0,16.43,3.93,16.43,17.79v14.86c0,13.87-3.93,17.81-16.43,17.81h-3V275m0-41.72h3.23c2.89,0,3.77-1.75,3.77-10.28,0-11.13-.7-11.79-3.77-11.79h-3.23Z"/><path class="cls-1" d="M166.22,275a2.47,2.47,0,0,1-2.46-2.46V199.49a2.46,2.46,0,0,1,2.46-2.45h13.89c11.19,0,16.17,3.49,16.17,15.94v9.29c0,4.69-1.58,10.59-7.35,11.68v.22c5.24,1.09,7.7,5.46,7.7,15.4V266.5c0,6,0,7.32.88,8.52l-11.19,0a2.45,2.45,0,0,1-2.44-2.46l0-27.21c0-2.63-1.49-3.93-4.1-3.93h-3.23V275H166.22m10.31-47.84h3.23c2.7,0,3.75-1.1,3.75-8,0-6.45-.7-8-3.75-8h-3.23Z"/><path class="cls-1" d="M126.56,304.37V291.9h-2.37v-1.33h2.37v-1.95c0-2.32.66-4.86,3.75-4.86a5.23,5.23,0,0,1,1.38.19v1.38a6.93,6.93,0,0,0-1.49-.16c-1.6,0-2.21,1.13-2.21,3.5v1.9h3v1.33h-3v12.47Z"/><path class="cls-1" d="M144.38,297.44c0,3.84-2.13,7.26-6.24,7.26-3.75,0-6.07-3.07-6.07-7.23,0-4,2.18-7.23,6.21-7.23C142,290.24,144.38,293.11,144.38,297.44Zm-10.79,0c0,3.26,1.74,5.9,4.66,5.9s4.61-2.45,4.61-5.9c0-3.26-1.63-5.9-4.66-5.9S133.59,294.16,133.59,297.47Z"/><path class="cls-1" d="M147.8,294.33c0-2.32,0-3.31,0-3.76h1.41c0,.42,0,1.33,0,3.06a5.18,5.18,0,0,1,4.8-3.39v1.52c-2.87.19-4.8,2.15-4.8,5.46v7.15H147.8Z"/><path class="cls-1" d="M164,294.13c0-1.18,0-2.48,0-3.56h1.41c0,.45.08,1.63.06,2.43a4.28,4.28,0,0,1,4.13-2.76,3.9,3.9,0,0,1,4,2.71,4.67,4.67,0,0,1,4.49-2.71c2.15,0,4.33,1.22,4.33,5.05v9.08H180.9v-8.91c0-1.85-.66-3.84-3.2-3.84s-3.83,2.13-3.83,4.8v7.95h-1.44v-8.89c0-2-.58-3.86-3.12-3.86s-3.91,2.35-3.91,5.16v7.59H164Z"/><path class="cls-1" d="M198.06,297.44c0,3.84-2.13,7.26-6.24,7.26-3.75,0-6.07-3.07-6.07-7.23,0-4,2.18-7.23,6.21-7.23C195.63,290.24,198.06,293.11,198.06,297.44Zm-10.79,0c0,3.26,1.74,5.9,4.66,5.9s4.61-2.45,4.61-5.9c0-3.26-1.63-5.9-4.66-5.9S187.27,294.16,187.27,297.47Z"/><path class="cls-1" d="M201.48,294.13c0-1.18,0-2.48,0-3.56h1.41c0,.45.08,1.63,0,2.43a4.3,4.3,0,0,1,4.14-2.76,3.89,3.89,0,0,1,4,2.71,4.67,4.67,0,0,1,4.5-2.71c2.15,0,4.33,1.22,4.33,5.05v9.08h-1.44v-8.91c0-1.85-.66-3.84-3.2-3.84s-3.83,2.13-3.83,4.8v7.95H210v-8.89c0-2-.58-3.86-3.12-3.86s-3.92,2.35-3.92,5.16v7.59h-1.43Z"/><path class="cls-1" d="M224.73,297.63c0,3.54,1.79,5.74,4.44,5.74a3.81,3.81,0,0,0,3.92-2.59h1.49a5.35,5.35,0,0,1-5.46,3.92c-4.22,0-5.85-3.62-5.85-7.12,0-4,2-7.34,6-7.34,4.25,0,5.6,3.64,5.6,6.26,0,.39,0,.78,0,1.13Zm8.66-1.24c0-2.7-1.49-4.82-4.16-4.82-2.85,0-4.11,2-4.42,4.82Z"/><path class="cls-1" d="M238.25,294.05c0-1.22,0-2.37,0-3.48h1.4a25.46,25.46,0,0,1,.06,2.6,4.48,4.48,0,0,1,4.55-2.93c2.49,0,4.64,1.38,4.64,5.19v8.94h-1.44v-8.72c0-2.43-1-4-3.39-4-3.23,0-4.36,2.71-4.36,5.68v7.07h-1.43Z"/><path class="cls-1" d="M251.24,290.57h2.56v-4.3h1.44v4.3h3.28v1.33h-3.28v8.91c0,1.54.33,2.42,1.65,2.42a4.81,4.81,0,0,0,1.41-.16v1.24a4.91,4.91,0,0,1-1.71.25c-1.79,0-2.79-.91-2.79-3.12V291.9h-2.56Z"/><path class="cls-1" d="M261.86,300.56a3.64,3.64,0,0,0,3.89,2.84c2.43,0,3.42-1.13,3.42-2.65s-.66-2.32-3.72-3.06c-3.59-.86-4.47-2-4.47-3.78s1.43-3.67,4.58-3.67,4.63,1.91,4.85,3.86H269a3.23,3.23,0,0,0-3.48-2.56c-2.37,0-3.06,1.16-3.06,2.26s.66,1.88,3.36,2.54c3.92.94,4.89,2.23,4.89,4.3,0,2.49-2.05,4.06-5,4.06-3.17,0-4.94-1.66-5.32-4.14Z"/><path class="cls-1" d="M279.21,290.57h2.56v-4.3h1.44v4.3h3.28v1.33h-3.28v8.91c0,1.54.33,2.42,1.65,2.42a4.81,4.81,0,0,0,1.41-.16v1.24a4.91,4.91,0,0,1-1.71.25c-1.79,0-2.79-.91-2.79-3.12V291.9h-2.56Z"/><path class="cls-1" d="M290.66,284v8.82a4.74,4.74,0,0,1,4.52-2.62c2,0,4.66,1,4.66,5.35v8.78h-1.43v-8.5c0-2.7-1.21-4.25-3.5-4.25-2.71,0-4.25,1.68-4.25,5.05v7.7h-1.44V284Z"/><path class="cls-1" d="M313.72,301.72a16.67,16.67,0,0,0,.19,2.65h-1.38a9.37,9.37,0,0,1-.25-2.1c-.47,1-1.68,2.43-4.52,2.43-3.2,0-4.58-2.07-4.58-4.14,0-3,2.35-4.44,6.48-4.44h2.62v-1.38c0-1.38-.41-3.2-3.53-3.2-2.75,0-3.17,1.43-3.47,2.56h-1.44c.17-1.54,1.11-3.86,4.94-3.86,3.14,0,4.94,1.33,4.94,4.36Zm-1.41-4.39h-2.7c-3,0-4.91.8-4.91,3.17a2.85,2.85,0,0,0,3.14,2.9c3.92,0,4.47-2.62,4.47-5.57Z"/><path class="cls-1" d="M316,290.57h2.57v-4.3H320v4.3h3.29v1.33H320v8.91c0,1.54.33,2.42,1.66,2.42a4.89,4.89,0,0,0,1.41-.16v1.24a5,5,0,0,1-1.71.25c-1.8,0-2.79-.91-2.79-3.12V291.9H316Z"/><path class="cls-1" d="M333.3,294.13c0-1.18,0-2.48,0-3.56h1.41c0,.45.08,1.63.06,2.43a4.27,4.27,0,0,1,4.13-2.76,3.91,3.91,0,0,1,4,2.71,4.66,4.66,0,0,1,4.49-2.71c2.15,0,4.33,1.22,4.33,5.05v9.08h-1.43v-8.91c0-1.85-.66-3.84-3.2-3.84s-3.84,2.13-3.84,4.8v7.95h-1.43v-8.89c0-2-.58-3.86-3.12-3.86s-3.91,2.35-3.91,5.16v7.59H333.3Z"/><path class="cls-1" d="M365.55,301.72a16.67,16.67,0,0,0,.19,2.65h-1.38a9.37,9.37,0,0,1-.25-2.1c-.46,1-1.68,2.43-4.52,2.43-3.2,0-4.58-2.07-4.58-4.14,0-3,2.35-4.44,6.48-4.44h2.62v-1.38c0-1.38-.41-3.2-3.53-3.2-2.75,0-3.17,1.43-3.47,2.56h-1.44c.17-1.54,1.11-3.86,4.94-3.86,3.14,0,4.94,1.33,4.94,4.36Zm-1.41-4.39h-2.7c-3,0-4.91.8-4.91,3.17a2.85,2.85,0,0,0,3.14,2.9c3.92,0,4.47-2.62,4.47-5.57Z"/><path class="cls-1" d="M367.86,290.57h2.57v-4.3h1.43v4.3h3.29v1.33h-3.29v8.91c0,1.54.33,2.42,1.66,2.42a4.89,4.89,0,0,0,1.41-.16v1.24a5,5,0,0,1-1.71.25c-1.8,0-2.79-.91-2.79-3.12V291.9h-2.57Z"/><path class="cls-1" d="M376,290.57h2.57v-4.3H380v4.3h3.29v1.33H380v8.91c0,1.54.33,2.42,1.66,2.42a4.89,4.89,0,0,0,1.41-.16v1.24a5,5,0,0,1-1.71.25c-1.8,0-2.79-.91-2.79-3.12V291.9H376Z"/><path class="cls-1" d="M386.26,297.63c0,3.54,1.8,5.74,4.44,5.74a3.81,3.81,0,0,0,3.92-2.59h1.49a5.35,5.35,0,0,1-5.46,3.92c-4.22,0-5.85-3.62-5.85-7.12,0-4,2-7.34,6-7.34,4.25,0,5.6,3.64,5.6,6.26,0,.39,0,.78,0,1.13Zm8.67-1.24c0-2.7-1.49-4.82-4.17-4.82-2.84,0-4.11,2-4.41,4.82Z"/><path class="cls-1" d="M399.78,294.33c0-2.32,0-3.31,0-3.76h1.41c0,.42,0,1.33,0,3.06a5.18,5.18,0,0,1,4.8-3.39v1.52c-2.87.19-4.8,2.15-4.8,5.46v7.15h-1.43Z"/></svg>