<svg id="Layer_1" data-name="Layer 1" xmlns="http://www.w3.org/2000/svg" viewBox="0 0 500 500"><defs><style>.cls-1{fill:#e10d19;}</style></defs><path class="cls-1" d="M111.2,215.71v7.59H94.56c-.48,15-.1,30.95-.22,46.35H83.28V223.3H66.41v-7.48a70.84,70.84,0,0,1,20.44-4.47C95.84,210.92,104.55,213.37,111.2,215.71Z"/><path class="cls-1" d="M195.19,212.8c.63.37.34,1.33.34,1.9v15.19c7.31-2.24,15.27-.67,20.1,2.46a20.11,20.11,0,0,1,9.28,15.41c.47,7-.36,14.38,0,21.89H213.74c-.44-7.18.58-15.07,0-21.33a9.35,9.35,0,0,0-8.94-8.38,14.66,14.66,0,0,0-9.27,2.24v27.47H184.47v-54.5A38.07,38.07,0,0,1,195.19,212.8Z"/><path class="cls-1" d="M411.77,212.8c.63.22.32,1,.33,1.45.51,17.31-.37,35.39,0,52.83-6.77,2.76-16.6,4.58-24.68,2.35-7.25-2-12.77-6.89-15-14a20.88,20.88,0,0,1,6-21.34c4.94-4.35,13.51-7,22.57-4.13V215.15A38,38,0,0,1,411.77,212.8Zm-20.11,27.14a9.41,9.41,0,0,0-8.93,10.5c.65,7.88,9.38,10,18.32,8.38V242.29A14,14,0,0,0,391.66,239.94Z"/><path class="cls-1" d="M427.29,213.58a7.28,7.28,0,0,1,6.15,2.91c2.67,4.1-.56,9.08-4.69,9.6-3.67.47-7.77-1.53-7.93-6C420.69,216.43,423.29,213.81,427.29,213.58ZM425.17,216v7.6h1.45v-6.48c2.67-1.12,3.73,3.27.45,2.68.6,1.33,1.39,2.49,2,3.8.52-.08,1.34.14,1.68-.12a24.74,24.74,0,0,1-1.46-2.45C432.82,218.89,429.24,213.75,425.17,216Z"/><path class="cls-1" d="M180.23,229.78c-.73,3.71-1.65,7.21-2.46,10.83-6.14-1.53-13.79-.94-17.2,2.35a9.47,9.47,0,0,0-2.46,9c1.87,7,11.18,8.59,19.66,6.47.8,3.64,1.72,7.14,2.46,10.84-8.53,2-16.85,1.26-22.79-1.9a20.08,20.08,0,0,1-4.13-32.73,22.92,22.92,0,0,1,14.41-5.92A50.66,50.66,0,0,1,180.23,229.78Z"/><path class="cls-1" d="M142.92,253.68H117.79c1.82,5.84,12.1,6.55,19.32,4.69.8,3.49,1.41,7.16,2.24,10.61-7.75,2.5-17.18,1.6-22.79-1.34a19.93,19.93,0,0,1-10.94-16.08c-.9-12.27,7.77-21.92,18.76-22.67A17.83,17.83,0,0,1,140.46,236C143.58,240,146.32,247.18,142.92,253.68Zm-25-8.49H133C131.68,237.66,119.19,238.68,117.9,245.19Z"/><path class="cls-1" d="M303.76,229a20.57,20.57,0,0,1,22.12,18.65,20.39,20.39,0,0,1-5.36,15.75,19.78,19.78,0,0,1-14.3,6.81,20.56,20.56,0,0,1-15.3-5.81,20.61,20.61,0,0,1,5-33.17A18.78,18.78,0,0,1,303.76,229Zm-5,13.51a9.63,9.63,0,1,0,15.74,9.94,11,11,0,0,0-1.67-9,9.79,9.79,0,0,0-8.27-3.36A9,9,0,0,0,298.74,242.51Z"/><path class="cls-1" d="M346.43,229a20.29,20.29,0,0,1,15.41,5.25,20.06,20.06,0,0,1,6.7,13.85,20.55,20.55,0,0,1-5.25,15.3,19.91,19.91,0,0,1-13.73,6.81A21,21,0,0,1,334.14,265a20.19,20.19,0,0,1-6.7-13.85,20.7,20.7,0,0,1,19-22.11Zm-5,13.51a8.92,8.92,0,0,0-2.68,4.69c-2.51,10.06,9.42,15.31,15.75,9.5a9.82,9.82,0,0,0,3-6.37,9.35,9.35,0,0,0-10.28-10.28A9.54,9.54,0,0,0,341.4,242.51Z"/><path class="cls-1" d="M238.76,229.11c2.21,7.17,4.47,14.29,6.59,21.56,2.5-7,4.43-14.48,6.81-21.56h10.27c-.08,1.69-1.29,3-1.34,4.69,0,1.14.8,2.88,1.23,4.24,1.31,4.14,2.68,8.68,3.8,12.63,2.52-6.94,4.44-14.47,6.81-21.56h10.28c-3.64,13.6-7.47,27-11.17,40.54h-9.27c-2-7-4.27-13.67-6.26-20.66-2.35,6.69-4.33,13.76-6.47,20.66h-9.27c-4.06-13.59-8.33-27-12.4-40.54Z"/><path class="cls-1" d="M227.25,277.7c.48-.11.33.41.67.44,2.64-.23,6.24.5,8.15-.44v2.9c-.5-.8-2.08-.52-3.35-.56.19,2.79-.39,6.35.34,8.6a6.72,6.72,0,0,1-2.68,0c.72-2.26.16-5.8.33-8.6H228c-.47,0-.26.63-.78.56Z"/><path class="cls-1" d="M139.79,284.51V288c0,.44.79,0,.56.67a8.84,8.84,0,0,1-3.12,0c-.24-.65.53-.29.55-.67v-9.16c0-.31-.63,0-.55-.44,2.7-.18,7.56-.93,8.82.89a4.19,4.19,0,0,1,.22,3.69C145.43,284.77,142.36,284.5,139.79,284.51Zm0-4.47v2.46c1.51-.13,3.59.31,4.58-.34a2.8,2.8,0,0,0,0-1.67C143.47,279.72,141.35,280.16,139.79,280Z"/><path class="cls-1" d="M180.34,279.48c.46-.09.42.33.67.45,2.64-.23,6.23.5,8.15-.45a5.38,5.38,0,0,1,0,2.46c-.49.12-.26-.48-.67-.45h-2.57c-.07,2.09-.43,5.42.23,7.15a6.72,6.72,0,0,1-2.68,0c.71-1.74.16-4.75.33-7-1-.22-2.84-.24-3.46.34Z"/><path class="cls-1" d="M218.76,279.48a5.18,5.18,0,0,1,0,2.35c-1.3-.9-4.14-.25-6.14-.45-.26.45,0,1.38-.11,2H216c.45,0,.24-.65.78-.56a12.14,12.14,0,0,1-.11,2.68c-.34.05-.23-.36-.34-.55a27.31,27.31,0,0,0-3.68-.12,8.45,8.45,0,0,0-.11,2.24c2.07-.2,5,.45,6.36-.45A9.77,9.77,0,0,1,219,289c-2.46-.57-6.09,0-8.72-.34a34.31,34.31,0,0,0,0-8.71C213,279.7,216.73,280.43,218.76,279.48Z"/><path class="cls-1" d="M247.47,279.48v2.35c-1.32-.88-4.13-.27-6.15-.45-.25.45,0,1.38-.11,2,1.35-.18,3.53.47,4-.56.51.46.09,1.85.23,2.68-.54,0-.41-.5-1-.67-.82-.23-2.12.17-3.13,0a9.39,9.39,0,0,0-.11,2.24c2.08-.2,5,.45,6.37-.45V289c-2.45-.5-5.79-.1-8.6-.23a36.15,36.15,0,0,0,0-8.82C241.73,279.7,245.44,280.43,247.47,279.48Z"/><path class="cls-1" d="M153.31,279.93c2.79-.39,5.13.64,6,2.57a4.24,4.24,0,0,1-1.79,5.47c-3.57,2-10.27-.1-8.48-5.14C149.58,281.38,151.1,280.24,153.31,279.93Zm4.36,3.46c-.8-2.54-6-2.68-6.82.11C149.88,288.75,159.1,288,157.67,283.39Z"/><path class="cls-1" d="M171.29,280.6a8.94,8.94,0,0,1-1.11,2.23c-.39-.36-.56-.91-1.12-1.11-1.1-.4-4.33-.81-4.36.55,0,1.11,2,.92,3,1,2.06.2,4.63,1,3.57,3.69-1,2.48-6.55,1.82-8.6,1a13.92,13.92,0,0,1,.9-2.12,3.72,3.72,0,0,0,3.12,1.45c.57,0,2.79-.16,2.8-1.12,0-1.4-4.32-.77-5.59-1.45a2.62,2.62,0,0,1-.67-3.68C164.87,279,169.15,280.11,171.29,280.6Z"/><path class="cls-1" d="M260,280.49c-.17,1-.89,1.42-1.23,2.23-1.2-2.1-5.78-1.68-6.48.56-1.19,3.82,4.92,5.4,6.7,2.23a5.77,5.77,0,0,1,1.23,1.9c-1.57.47-2.29,1.18-3.8,1.34-7.85.84-8.32-9.76.23-8.93C257.88,279.94,258.68,280.59,260,280.49Z"/><path class="cls-1" d="M295.05,279.93c3.52-.53,7.45,1.61,6.25,5.7-1.45,4.93-12.72,4-10.38-2.8C291.44,281.32,292.83,280.26,295.05,279.93Zm-2.46,3.69c-.84,4.09,5.79,4.6,6.81,1.67.94-2.67-1.63-4-3.68-3.8C294,281.64,292.83,282.44,292.59,283.62Z"/><path class="cls-1" d="M319.73,279.93c3.4-.48,6.58,1.23,6.37,4.69-.27,4.51-8.51,5.79-10.5,1.45C314.08,282.76,316.77,280.35,319.73,279.93Zm-2.34,3.46c-1.22,3.47,4.3,5,6.25,2.57s-1-4.72-3.35-4.47C318.47,281.68,317.69,282.52,317.39,283.39Z"/><path class="cls-1" d="M338.27,280.38a4.8,4.8,0,0,1-1.11,2.23c-.44.1-.08-.59-.34-.67-3.25-2.27-8.37,1.09-5.69,4.36,1,1.18,3.79,1.3,5.58.55v-1.34h-2c-.55-.1-.22.68-.78.56a4.67,4.67,0,0,1,0-2.23c1,.83,3.35.29,5,.45.14.51-.44.3-.56.55a5,5,0,0,0,.33,2.68c-3.89,2.4-10.78,1.46-10.05-4,.48-3.56,5.17-4.51,8.82-3C337.91,280.58,338,280.12,338.27,280.38Z"/><path class="cls-1" d="M174.75,279.93h2.8c-1,1.88-.22,5.44-.45,8-.15.48.53.14.45.56-.46.43-2.15.23-2.8.11,1-1.87.22-5.45.45-8C175.17,280.25,174.65,280.41,174.75,279.93Z"/><path class="cls-1" d="M192,279.93h2.9c.18.51-.46.21-.45.56V288c-.13.5.63.12.45.67a7.85,7.85,0,0,1-2.9,0c-.09-.46.53-.21.44-.67v-7.48C192.42,280.14,191.78,280.44,192,279.93Z"/><path class="cls-1" d="M200.44,279.93c.16.49-.43.24-.33.67.73,1.91,1.7,3.58,2.46,5.47,1-1.72,1.74-3.62,2.57-5.47.13-.5-.63-.12-.45-.67h3c-1.62,2.32-2.49,5.4-3.9,7.93-.09.41.27.62,0,.89h-2.46c-.25-.23,0-.49.11-.67-.63-1.12-1.1-2.43-1.68-3.68-.71-1.57-1.32-3.28-2.45-4.25C197.92,279.64,199.47,280.07,200.44,279.93Z"/><path class="cls-1" d="M263.77,279.93h2.57c-.5.72-.3,2.16-.33,3.35h5.25c-.07-1.16.22-2.68-.34-3.35h2.57a36.15,36.15,0,0,0,0,8.82h-2.57c.53-.81.29-2.39.34-3.68A47.45,47.45,0,0,0,266,285c.09,1.25-.26,2.93.33,3.68a11.12,11.12,0,0,1-2.57.11A35.18,35.18,0,0,0,263.77,279.93Z"/><path class="cls-1" d="M277.4,279.93h2.91c.09.32-.16.29-.12.56,1.57,1.78,3.26,3.44,4.92,5.14-.2-1.86.45-4.55-.45-5.7h2.68c.15.49-.43.24-.33.67.19,2.53-.4,6.29.33,8a13.2,13.2,0,0,1-2.79.11c-.1-.35.1-.42.22-.56-1.7-1.86-3.45-3.69-5.25-5.47.21,1.92-.47,4.72.45,5.92a11.18,11.18,0,0,1-2.57.11A35.66,35.66,0,0,0,277.4,279.93Z"/><path class="cls-1" d="M304.32,279.93h2.9c.14.47-.37.3-.44.56v6.59c2.08-.19,5,.44,6.36-.45V289c-2.48-.57-6.16,0-8.82-.34-.18-.51.46-.21.45-.56v-7.59C304.78,280.14,304.14,280.44,304.32,279.93Z"/><path class="cls-1" d="M344.42,279.93c.08.42-.29.38-.45.56.54,1.1,1.38,1.9,1.9,3a22.76,22.76,0,0,0,2.23-2.9c.13-.5-.62-.12-.44-.67a15.37,15.37,0,0,1,3,.11c-1.59,1.42-2.59,3.44-3.91,5.14V288c-.13.5.63.12.45.67a12.14,12.14,0,0,1-2.68.11,11.15,11.15,0,0,0,.22-3.57,10.59,10.59,0,0,0-1.56-2.46,8.13,8.13,0,0,0-2.35-2.57C341.6,279.64,343.29,280.07,344.42,279.93Z"/></svg>