<svg id="Layer_1" data-name="Layer 1" xmlns="http://www.w3.org/2000/svg" viewBox="0 0 500 500"><defs><style>.cls-1{fill:#343434;}</style></defs><path class="cls-1" d="M408.41,175a52.09,52.09,0,0,1,0,104.18H91.57a52.09,52.09,0,0,1,0-104.18Zm0-3.49H91.57a55.58,55.58,0,0,0,0,111.16H408.41a55.58,55.58,0,0,0,0-111.16"/><polygon class="cls-1" points="98.53 251.25 98.53 216.99 81.44 216.99 81.44 203 133.05 203 133.05 216.99 115.96 216.99 115.96 251.25 98.53 251.25"/><rect class="cls-1" x="138.93" y="203" width="17.43" height="48.25"/><polygon class="cls-1" points="179.33 251.25 179.33 216.99 162.24 216.99 162.24 203 213.85 203 213.85 216.99 196.76 216.99 196.76 251.25 179.33 251.25"/><path class="cls-1" d="M250.52,251.25,248,244.16H227.76l-2.49,7.09H207.7l20-48.24h20.81l20,48.24ZM237.9,216l-5.61,15.41h11.15Z"/><polygon class="cls-1" points="311.13 251.25 289.91 225.84 289.91 251.25 273.5 251.25 273.5 203 288.77 203 309.98 228.4 309.98 203 326.4 203 326.4 251.25 311.13 251.25"/><rect class="cls-1" x="334.64" y="203" width="17.43" height="48.25"/><path class="cls-1" d="M400.58,251.25,398,244.16h-20.2l-2.5,7.09H357.74l20-48.24h20.81l20,48.24ZM388,216l-5.61,15.41h11.15Z"/><path class="cls-1" d="M418.47,216.68A9.1,9.1,0,0,1,415,216a7.94,7.94,0,0,1-2.7-1.8,7.71,7.71,0,0,1-1.73-2.7,9.17,9.17,0,0,1-.61-3.36,8.79,8.79,0,0,1,.67-3.47,8.09,8.09,0,0,1,1.84-2.71,8.44,8.44,0,0,1,2.76-1.76,9.32,9.32,0,0,1,3.38-.61,8.84,8.84,0,0,1,3.45.64,8.07,8.07,0,0,1,2.73,1.8,8.29,8.29,0,0,1,1.79,2.73,9,9,0,0,1,.64,3.41,8.7,8.7,0,0,1-.64,3.42,7.81,7.81,0,0,1-1.84,2.7,8.28,8.28,0,0,1-2.77,1.76,9.79,9.79,0,0,1-3.47.6m.16-1.54a7,7,0,0,0,3.53-.88,6.31,6.31,0,0,0,2.4-2.46,8.07,8.07,0,0,0-.05-7.31A6.55,6.55,0,0,0,422,202a7,7,0,0,0-3.51-.89,7,7,0,0,0-3.59.93,6.47,6.47,0,0,0-2.41,2.54,7.53,7.53,0,0,0-.86,3.6,7.06,7.06,0,0,0,.92,3.65,6.46,6.46,0,0,0,2.5,2.42,7.27,7.27,0,0,0,3.54.86ZM415.05,213V203h3.16q3.94,0,4,3a3.3,3.3,0,0,1-.38,1.66,2.59,2.59,0,0,1-1.25,1.08l2.24,4.19h-2.61l-1.74-3.77h-1V213Zm2.39-5.47h.63a2,2,0,0,0,1.21-.31,1.22,1.22,0,0,0,.44-1.06,1.11,1.11,0,0,0-.38-.94,2.18,2.18,0,0,0-1.25-.29h-.64Z"/><path class="cls-1" d="M94.69,319.73H86.31v8.42H81.44V307.23H96.16V311H86.31v5h8.38Zm22.59-.16a8.8,8.8,0,0,1-2.45,6.38,9.11,9.11,0,0,1-15.32-5.61,6.6,6.6,0,0,1,0-.77v-3.76a8.78,8.78,0,0,1,2.47-6.37,9.46,9.46,0,0,1,12.84,0,8.73,8.73,0,0,1,2.47,6.37Zm-4.85-3.79a6,6,0,0,0-1.05-3.68,3.85,3.85,0,0,0-6,0,6.06,6.06,0,0,0-1,3.69v3.79a6.11,6.11,0,0,0,1.05,3.71,3.53,3.53,0,0,0,3,1.44,3.46,3.46,0,0,0,3-1.44,6.18,6.18,0,0,0,1-3.71Zm14.15,4.35v8h-4.87V307.23h8a9.11,9.11,0,0,1,5.76,1.68,5.56,5.56,0,0,1,2.13,4.6,4.6,4.6,0,0,1-.86,2.78,6.05,6.05,0,0,1-2.52,1.9A4.65,4.65,0,0,1,137,320a5.62,5.62,0,0,1,.85,3.17v1.32a8.41,8.41,0,0,0,.24,1.87,2.51,2.51,0,0,0,.85,1.49v.29h-5a2.44,2.44,0,0,1-.76-1.58,14.63,14.63,0,0,1-.18-2.1v-1.26a3.07,3.07,0,0,0-.79-2.29,3.14,3.14,0,0,0-2.31-.79Zm0-3.73h3.21a3.29,3.29,0,0,0,2.24-.67,2.38,2.38,0,0,0,.78-1.92,2.8,2.8,0,0,0-.8-2.07,3.08,3.08,0,0,0-2.25-.78h-3.18Zm36.24,7.69h-6.59l-1.18,4.06h-4.89l6.75-20.92h5.22l6.77,20.92H164Zm-5.51-3.74h4.44l-2.19-7.49h-.08Zm23.63,7.8V307.23h7.19a10.88,10.88,0,0,1,6.08,1.45,4.81,4.81,0,0,1,2.18,4.3,5.09,5.09,0,0,1-.7,2.66,4.3,4.3,0,0,1-2.17,1.75,4.28,4.28,0,0,1,2.71,1.68,4.88,4.88,0,0,1,.88,2.89,5.46,5.46,0,0,1-2.06,4.63,9.51,9.51,0,0,1-5.89,1.56ZM185.82,316h2.41a4.28,4.28,0,0,0,2.47-.64,2.11,2.11,0,0,0,.82-1.8,2.24,2.24,0,0,0-.83-1.94,4.29,4.29,0,0,0-2.57-.61h-2.3Zm0,3.21v5.24h3.34a3.68,3.68,0,0,0,2.33-.61,2.24,2.24,0,0,0,.78-1.87,2.43,2.43,0,0,0-2.06-2.77,2.21,2.21,0,0,0-.77,0Zm28.72,0h-8.21v5.21H216v3.74H201.46V307.23H216V311h-9.7v4.49h8.2Zm16.4,4.88h-6.6l-1.17,4.07h-4.89L225,307.23h5.22L237,328.15h-4.89Zm-5.52-3.73h4.44l-2.18-7.49h-.09ZM257,307.23v13.71a6.75,6.75,0,0,1-2.38,5.54,9.38,9.38,0,0,1-6.23,2,9.55,9.55,0,0,1-6.28-2,6.81,6.81,0,0,1-2.38-5.54V307.23h4.87v13.71a3.69,3.69,0,0,0,1,2.85,3.94,3.94,0,0,0,2.8.93,3.83,3.83,0,0,0,2.77-.92,3.75,3.75,0,0,0,1-2.86V307.23ZM276.45,311h-5.52v17.19h-4.87V311h-5.47v-3.74h15.86Zm8.76,17.19h-4.84V307.23h4.84Zm18.47-8.42H295.3v8.42h-4.87V307.23h14.72V311H295.3v5h8.38Zm22.46-12.5v13.71a6.81,6.81,0,0,1-2.38,5.54,10.9,10.9,0,0,1-12.51,0,6.75,6.75,0,0,1-2.38-5.54V307.23h4.87v13.71a3.69,3.69,0,0,0,1,2.85,3.92,3.92,0,0,0,2.8.93,3.84,3.84,0,0,0,2.77-.92,3.75,3.75,0,0,0,1-2.86V307.23Zm9.68,17.18h9v3.74H331V307.23h4.87Zm26.5,0h9v3.74H357.45V307.23h4.87Zm17.85,3.74h-4.84V307.23h4.84Zm18.48-8.42h-8.38v8.42H385.4V307.23h14.71V311h-9.84v5h8.37ZM417,319.2H408.8v5.21h9.68v3.74H403.92V307.23h14.57V311H408.8v4.49H417Z"/></svg>