<svg id="Layer_1" data-name="Layer 1" xmlns="http://www.w3.org/2000/svg" viewBox="0 0 500 500"><path d="M171.75,278.76a20.29,20.29,0,0,0,7.26-7.57,22.22,22.22,0,0,0,2.41-14,19.16,19.16,0,0,0-9.23-14.61,28.31,28.31,0,0,0-14.93-3.89c-11.58-.09-23.17,0-34.75-.05h-.93v.94q0,10.52-.06,21.05,0,20.28,0,40.55h20.26l0-13.9c0-1.78,0-3.56,0-5.45h1.11c2.47,0,4.94,0,7.41,0a1.38,1.38,0,0,1,1,.47q6.38,9.33,12.69,18.7a1,1,0,0,1,0,.16h21.25l-14.49-21.8ZM160,263.58a5.1,5.1,0,0,1-4.48,2.3c-4.5,0-9,0-13.49,0a1.77,1.77,0,0,1-.33-.07V255.49h.84c4.33,0,8.66,0,13,0a5,5,0,0,1,4.77,2.79A4.88,4.88,0,0,1,160,263.58Z"/><path d="M444.16,300.57l-10.32-15.94c-1.13-1.74-2.24-3.49-3.36-5.22a1.3,1.3,0,0,1,.17-.17l.7-.42a20.16,20.16,0,0,0,7.39-7.67A22.38,22.38,0,0,0,441,256.57,19.12,19.12,0,0,0,430.84,242a29.31,29.31,0,0,0-13.94-3.3c-11.67-.07-23.34,0-35,0-.29,0-.58,0-.92,0v.82q0,18.34,0,36.69a3.54,3.54,0,0,0,.23,1.19q3.69,9.75,7.41,19.49c.54,1.42,1,2.87,1.54,4.31h10.7c0-.36.07-.71.07-1.06V281.55h6.52c1,0,2.2-.27,3,.15s1.13,1.56,1.65,2.39l10.85,17.07h20.92a2.65,2.65,0,0,0,.66-.16A3.73,3.73,0,0,1,444.16,300.57ZM420.28,261a5.27,5.27,0,0,1-5.34,4.9c-4.55.05-9.11,0-13.67,0a1.68,1.68,0,0,1-.31-.1V255.55c.29,0,.55-.06.81-.06,4.34,0,8.67,0,13,0A5.28,5.28,0,0,1,420.28,261Z"/><path d="M363.32,239.51a1.15,1.15,0,0,0-1.28-.9q-14.24,0-28.49,0a1.05,1.05,0,0,0-1.19.79q-10.94,28.77-21.9,57.53c-.54,1.4-1,2.82-1.52,4.24h21.58l2.69-7.13c.3-.79.44-1.87,1-2.26s1.68-.16,2.55-.16c8,0,15.91,0,23.86,0a1.06,1.06,0,0,1,1.19.79c1.12,2.94,2.3,5.85,3.45,8.78h21.58c-.1-.23-.21-.44-.3-.67Q374.94,270,363.32,239.51Zm-24.24,39.18c2.92-7.7,5.81-15.32,8.79-23.14l8.7,23.14Z"/><path d="M268.09,266.78a26.79,26.79,0,0,0-12.4-2.78c-6.21-.06-12.41,0-18.62,0a4.25,4.25,0,1,1,.16-8.49h28.18V238.66l-.63,0c-8.95,0-17.9,0-26.85,0a32.87,32.87,0,0,0-14.5,3.11c-4.61,2.23-8.17,5.5-10,10.41a20.68,20.68,0,0,0-.52,11.35c1.21,6,4.53,10.43,10.33,12.76a25.67,25.67,0,0,0,9.66,1.71c6.06,0,12.13,0,18.2,0a4.14,4.14,0,0,1,3.9,2.29,4,4,0,0,1-.26,4.29,4.55,4.55,0,0,1-4.12,1.94H213.07v14.66h39.54a8.5,8.5,0,0,1,.88-.15,34.82,34.82,0,0,0,13.32-3.6c6.44-3.33,11-9.36,10-17.64C276.12,274,273.32,269.54,268.09,266.78Z"/><path d="M55.48,255.52h21v22.29q0,11.67,0,23.36H96.44c0-.36,0-.72,0-1.07V255.48h21V238.69h-62Z"/><path d="M321.61,255.5a1,1,0,0,0,1.14-.75c1.89-5.11,3.82-10.2,5.74-15.29.09-.25.15-.5.24-.78H269.28v16.81h15.09c1.12,0,1.12,0,1.12,1.1V300c0,.38,0,.77.06,1.15h19.61c0-.36,0-.72,0-1.07V255.49h1C311.34,255.49,316.48,255.48,321.61,255.5Z"/><path d="M208.92,238.7H187.31v61.57c0,.3,0,.6.06.9H209c0-.11,0-.22,0-.33q0-30.75,0-61.51C209,239.12,208.93,238.91,208.92,238.7Z"/><path d="M197.75,205a13.61,13.61,0,1,0,13.52,13.63A13.56,13.56,0,0,0,197.75,205Z"/><path d="M68.9,216.89a.89.89,0,0,1,.39,1.21c-.87,2.6-1.7,5.21-2.54,7.81-.28.87-.56,1.75-.83,2.62l.15.1,9.5-7,9.56,7c-1-3.61-2.18-7.12-3.36-10.61a.84.84,0,0,1,.36-1.15c2.73-1.93,5.44-3.9,8.15-5.85l.81-.62-.07-.16h-.88c-3.38,0-6.75,0-10.13,0-.51,0-.79-.12-.94-.66-.32-1.13-.71-2.24-1.08-3.36l-2.4-7.42c-.12.32-.2.5-.25.67-1.09,3.33-2.19,6.66-3.23,10-.2.64-.5.77-1.1.77-3.35,0-6.7,0-10.05,0-.28,0-.57,0-1,.05.31.26.47.4.64.52C63.35,212.87,66.11,214.9,68.9,216.89Z"/><path d="M148.19,218.14c-.94,2.8-1.84,5.61-2.75,8.42-.21.66-.4,1.32-.6,2l.15.09,9.5-7,9.69,7.12c-.1-.4-.15-.63-.22-.86-1.05-3.19-2.08-6.4-3.18-9.57a1.14,1.14,0,0,1,.48-1.6c2.7-1.88,5.35-3.83,8-5.75l.71-.56-.08-.15H169c-3.24,0-6.47,0-9.71,0-.81,0-1.19-.18-1.44-1-1.05-3.45-2.2-6.87-3.35-10.43-.11.32-.2.51-.26.71-1.08,3.3-2.18,6.6-3.22,9.91-.2.67-.51.82-1.15.81-3.35,0-6.7,0-10,0-.28,0-.56,0-1,.06,3.12,2.27,6,4.41,9,6.51A1,1,0,0,1,148.19,218.14Z"/><path d="M105.27,228.82l9.76-7.17,9.54,7,.12-.12q-1.84-5.59-3.68-11.19l9.55-6.9-.06-.17h-.88c-3.37,0-6.75,0-10.12,0-.55,0-.83-.13-1-.69-.73-2.4-1.52-4.79-2.3-7.18-.36-1.14-.74-2.26-1.17-3.59-.17.5-.27.78-.36,1.06-1,3.2-2.08,6.4-3.08,9.6a1,1,0,0,1-1.09.8c-3.37,0-6.75,0-10.12,0-.28,0-.57,0-1.06.05,3.34,2.44,6.5,4.73,9.64,7C107.74,221.16,106.54,224.88,105.27,228.82Z"/></svg>